<svg class="svg-icon" style="width: 1em; height: 1em;vertical-align: middle;fill: white;overflow: hidden;" viewBox="0 0 1024 1024" version="1.1" xmlns="http://www.w3.org/2000/svg"><path d="M889.514667 599.808c0.170667-6.058667 0.554667-12.074667 0.426666-18.176 0-149.930667-88.405333-285.44-221.397333-345.386667 0.384-4.48 1.322667-8.789333 1.322667-13.354666 0-87.850667-69.717333-158.933333-155.946667-158.933334S357.930667 135.04 357.930667 222.890667c0 5.888 1.066667 11.477333 1.706666 17.194666-127.872 62.250667-212.309333 194.56-212.309333 341.034667 0 4.821333 0.810667 8.874667 0.981333 13.525333A158.122667 158.122667 0 0 0 42.666667 744.405333c0 87.850667 69.717333 158.933333 155.946666 158.933334 32.512 0 62.677333-10.112 87.637334-27.477334a365.653333 365.653333 0 0 0 232.832 84.138667c82.346667 0 161.834667-28.16 226.858666-79.445333a152.704 152.704 0 0 0 79.402667 22.784c86.229333 0 155.946667-71.082667 155.946667-158.933334a158.72 158.72 0 0 0-91.776-144.597333z m-375.637334-482.986667c57.514667 0 104.106667 47.530667 104.106667 106.069334 0 58.581333-46.634667 106.112-104.106667 106.112S409.728 281.514667 409.728 222.933333c0-58.538667 46.634667-106.112 104.149333-106.112zM198.613333 850.517333c-57.472 0-104.106667-47.530667-104.106666-106.069333 0-58.581333 46.634667-106.112 104.106666-106.112 57.514667 0 104.149333 47.530667 104.149334 106.112 0.042667 58.496-46.634667 106.069333-104.149334 106.069333z m124.928-11.733333c19.285333-26.453333 31.061333-58.88 31.061334-94.378667 0-87.594667-69.333333-158.421333-155.221334-158.890666 0-1.749333-0.298667-3.072-0.298666-4.864 0-122.88 68.992-234.581333 174.464-289.365334 25.130667 53.461333 78.250667 90.581333 140.330666 90.581334 63.36 0 117.546667-38.528 141.952-93.738667 109.824 53.290667 182.229333 167.168 182.229334 292.992 0 1.962667-0.384 3.669333-0.426667 5.589333-4.138667-0.341333-8.064-1.237333-12.288-1.237333-86.229333 0-155.989333 71.082667-155.989333 158.976 0 38.528 13.994667 73.429333 36.394666 100.906667a316.8 316.8 0 0 1-186.666666 61.354666 315.733333 315.733333 0 0 1-195.541334-67.925333z m501.845334 11.733333c-57.514667 0-104.149333-47.530667-104.149334-106.069333 0-58.581333 46.677333-106.112 104.149334-106.112 57.472 0 104.106667 47.530667 104.106666 106.112 0 58.496-46.677333 106.069333-104.106666 106.069333z"  /></svg>