<?xml version="1.0" encoding="UTF-8"?>
<svg id="Capa_1" data-name="Capa 1" xmlns="http://www.w3.org/2000/svg" viewBox="0 0 128.07 141.74">
  <defs>
    <style>
      .cls-1 {
        fill: #d7d7d7;
        stroke-width: 0px;
      }
    </style>
  </defs>
  <path class="cls-1" d="M122.86,32.34L68.93,1.24c-1.51-.87-3.21-1.26-4.89-1.16-1.35.08-2.69.46-3.9,1.16L5.72,32.57c-2.75,1.58-4.46,4.52-4.48,7.72l-.51,61.31c-.03,3.27,1.71,6.3,4.54,7.9l54.78,31.03c1.24.71,2.62,1.08,4,1.13,1.63.06,3.27-.32,4.74-1.16l54.08-31.11c2.77-1.59,4.49-4.57,4.49-7.8v-61.47c0-3.22-1.71-6.2-4.48-7.79ZM36.12,105.87l-11.88.08h-.06c-3.43,0-6.55-2-8.04-5.45-.39-.9-.54-1.89-.54-2.88,0-3.16,0-11.23,0-20.55l-4.35-.78c-.69-.12-1.19-.72-1.19-1.42v-7.77c0-.7.5-1.3,1.19-1.42l4.35-.78v-20.17c0-4.69,3.84-8.54,8.52-8.57l11.89-.08c.61,0,1.1.48,1.1,1.09l.08,11.05c0,.61-.48,1.1-1.09,1.1l-6.77.04c-.6,0-1.09.49-1.09,1.1v41.11c0,.61.5,1.1,1.1,1.1l6.66-.04c.61,0,1.1.48,1.1,1.09l.08,11.05c0,.61-.48,1.1-1.09,1.1ZM49.11,75.58c0,.73-.59,1.33-1.32,1.33h-9.26c-.73,0-1.32-.59-1.32-1.33v-9.26c0-.73.59-1.32,1.32-1.32h9.26c.73,0,1.32.59,1.32,1.32v9.26ZM69.99,75.5c0,.73-.59,1.33-1.32,1.33h-9.26c-.73,0-1.32-.59-1.32-1.33v-9.26c0-.73.59-1.33,1.32-1.33h9.26c.73,0,1.32.59,1.32,1.33v9.26ZM89.52,76.83h-9.26c-.73,0-1.32-.59-1.32-1.33v-9.26c0-.73.59-1.33,1.32-1.33h9.26c.73,0,1.32.59,1.32,1.33v9.26c0,.73-.59,1.33-1.32,1.33ZM117.98,74.77c0,.7-.5,1.3-1.19,1.42l-4.35.78v20.17c0,4.69-3.84,8.54-8.52,8.57l-11.89.08c-.61,0-1.1-.48-1.1-1.09l-.08-11.05c0-.61.48-1.1,1.09-1.1l6.77-.04c.6,0,1.09-.49,1.09-1.1v-41.11c0-.61-.5-1.1-1.1-1.1l-6.66.04c-.61,0-1.1-.48-1.1-1.09l-.08-11.05c0-.61.48-1.1,1.09-1.1l11.88-.08h.06c3.43,0,6.55,2,8.04,5.45.39.9.54,1.89.54,2.88,0,3.16,0,11.23,0,20.55l4.35.78c.69.12,1.19.72,1.19,1.42v7.78Z"/>
</svg>