<?xml version="1.0" encoding="UTF-8"?>
<svg id="Capa_1" data-name="Capa 1" xmlns="http://www.w3.org/2000/svg" viewBox="0 0 40.75 44.8">
  <defs>
    <style>
      .cls-1 {
        fill: #c5c5c5;
        stroke-width: 0px;
      }
    </style>
  </defs>
  <path class="cls-1" d="M38.7,9.76h0L22.53.53c-.68-.39-1.45-.57-2.24-.53-.62.03-1.24.22-1.78.52L2.2,9.83C.95,10.54.16,11.88.15,13.32L0,31.5c-.01,1.48.78,2.85,2.08,3.58l16.42,9.2c.56.31,1.19.49,1.83.51.05,0,.11,0,.16,0,.7,0,1.39-.18,2-.53l16.21-9.23c1.27-.72,2.05-2.07,2.05-3.53V13.28c0-1.45-.78-2.81-2.05-3.53ZM37.95,13.28v18.23c0,.19-.05.37-.13.54l-15.78.21h-2.23c-4.77,0-8.8-3.68-8.97-8.2-.09-2.3.75-4.49,2.36-6.17,1.67-1.74,3.93-2.69,6.36-2.69.72,0,1.44.09,2.14.26.99.24,1.92.65,2.76,1.21.36.24.81.3,1.22.16.41-.14.73-.46.88-.87.89-2.57,3.61-5.33,7.14-5.84l3.62,2.06c.39.22.64.64.64,1.1ZM21.1,41.84c-.2.12-.43.18-.67.16-.2,0-.39-.06-.57-.16L3.44,32.64c-.4-.22-.65-.65-.64-1.11l.15-18.18c0-.45.25-.86.64-1.08L19.9,2.97c.17-.1.36-.15.56-.16.02,0,.05,0,.07,0,.22,0,.43.06.62.17l9.19,5.24c-2.63,1.17-4.61,3.23-5.75,5.33-.71-.34-1.45-.6-2.22-.79-.92-.23-1.87-.34-2.81-.34-3.15,0-6.2,1.29-8.37,3.55-2.15,2.23-3.26,5.15-3.15,8.22.23,6.01,5.51,10.9,11.77,10.9l13.47-.16-12.18,6.93Z"/>
</svg>