<?xml version="1.0" encoding="UTF-8"?>
<svg id="Capa_1" xmlns="http://www.w3.org/2000/svg" version="1.1" viewBox="0 0 142 157.1">
  <!-- Generator: Adobe Illustrator 29.1.0, SVG Export Plug-In . SVG Version: 2.1.0 Build 142)  -->
  <defs>
    <style>
      .st0 {
        fill: #f2800f;
      }

      .st1 {
        fill: #fff;
      }

      .st2 {
        fill: #f78e26;
      }
    </style>
  </defs>
  <g>
    <path class="st0" d="M66.6,78c1.3.7,2.6,1.1,4,1.1,1.6,0,3.3-.3,4.8-1.2"/>
    <path class="st2" d="M70.6,79.1c1.6,0,3.3-.3,4.8-1.1"/>
  </g>
  <g>
    <g>
      <path class="st0" d="M130.5,40l-54.5-31.1c-1.5-.9-3.2-1.3-4.9-1.2-1.4,0-2.7.5-3.9,1.2L12,40.3c-2.8,1.6-4.5,4.5-4.5,7.7l-.5,61.3c0,3.3,1.7,6.3,4.6,7.9l55.4,31c1.3.7,2.6,1.1,4,1.1,1.6,0,3.3-.3,4.8-1.2l54.7-31.1c2.8-1.6,4.5-4.6,4.5-7.8v-61.5c0-3.2-1.7-6.2-4.5-7.8Z"/>
      <path class="st2" d="M130.5,40l-54.6-31.1c-1.5-.9-3.2-1.3-4.9-1.2v141.7c1.6,0,3.3-.3,4.8-1.1l54.7-31.1c2.8-1.6,4.5-4.6,4.5-7.8v-61.5c0-3.2-1.7-6.2-4.5-7.8Z"/>
    </g>
    <path class="st1" d="M71,86.7c-6.1,0-11-5-11-11s5-11,11-11,11,5,11,11-5,11-11,11Z"/>
    <path class="st1" d="M135,109.3v-7.2c-4-5.5-9.2-10.1-15.3-13.5l-10.4-5.8c-.5-24.6-13.7-47.5-34.9-60.1-2-1.2-4.6-1.2-6.6,0-21.1,12.5-34.3,35.3-34.9,59.7l-11.1,6.1c-5.8,3.2-10.7,7.4-14.6,12.5v8.3c0,3.3,1.7,6.3,4.5,7.9l.8.5c2.9-7.4,8.3-13.7,15.5-17.7l4.8-2.7v31.8l13,7.3v-52.2c0-19.2,9.6-37.3,25.3-48.1,15.7,10.8,25.3,28.9,25.3,48.1v52.4l13-7.4v-31.5l4.1,2.3c7.3,4,12.7,10.5,15.6,18l1.5-.8c2.8-1.6,4.5-4.6,4.5-7.8Z"/>
  </g>
</svg>