<?xml version="1.0" encoding="UTF-8"?>
<svg id="Capa_1" data-name="Capa 1" xmlns="http://www.w3.org/2000/svg" viewBox="0 0 40.66 44.8">
  <defs>
    <style>
      .cls-1 {
        fill: #c5c5c5;
        stroke-width: 0px;
      }
    </style>
  </defs>
  <path class="cls-1" d="M2.07,35.08l16.38,9.2c.56.31,1.19.49,1.82.51.05,0,.11,0,.16,0,.7,0,1.39-.18,2-.53l16.17-9.23c1.26-.72,2.05-2.07,2.05-3.53V13.28c0-1.45-.78-2.81-2.04-3.53L22.49.53c-.68-.39-1.46-.58-2.24-.53-.62.03-1.24.22-1.78.53L2.2,9.83C.95,10.54.16,11.88.15,13.32L0,31.5c-.01,1.48.78,2.85,2.07,3.58ZM14.94,22.59c0-2.87,2.33-5.2,5.19-5.2s5.19,2.33,5.19,5.2-2.33,5.2-5.19,5.2-5.19-2.33-5.19-5.2ZM26.31,11.42c0-.6.49-1.1,1.09-1.1s1.09.49,1.09,1.1-.49,1.1-1.09,1.1-1.09-.49-1.09-1.1ZM4.39,22.58c0,1.02-.62,1.9-1.53,2.27l.04-4.54c.89.36,1.49,1.25,1.49,2.27ZM19.85,2.97c.17-.1.36-.15.55-.16.02,0,.05,0,.07,0,.22,0,.43.06.62.16l16.13,9.22c.39.22.63.64.63,1.1v18.23c0,.45-.24.87-.63,1.1l-16.17,9.23c-.2.12-.44.17-.67.16-.2,0-.39-.06-.56-.16L3.44,32.64c-.4-.22-.65-.65-.64-1.11l.03-3.64c1.92-.33,3.55-1.7,4.2-3.56l.09-.26h5.3l.07.3c.69,3,3.08,5.33,6.09,5.94l.31.06v5.44l-.1.11c-.36.39-.55.9-.55,1.43,0,1.17.95,2.13,2.12,2.13s2.12-.95,2.12-2.13c0-.53-.2-1.03-.55-1.43l-.1-.11v-5.52l.29-.08c2.8-.73,5.02-3.02,5.67-5.85l.07-.3h3.14l.12.16c.53.73,1.35,1.14,2.24,1.14,1.53,0,2.78-1.25,2.78-2.78s-1.25-2.78-2.78-2.78c-.89,0-1.73.43-2.25,1.16l-.12.16h-3.13l-.07-.3c-.3-1.32-.95-2.54-1.86-3.54l-.2-.22,1.09-1.63.23.02c.12.01.25.02.37.02,2.22,0,4.03-1.81,4.03-4.04s-1.81-4.04-4.03-4.04-4.03,1.81-4.03,4.04c0,.83.25,1.63.73,2.32l.15.22-.97,1.42-.28-.11c-1.54-.61-3.28-.71-4.87-.29l-.26.07-5.57-7.77,7.55-4.31ZM3.59,12.26l6.15-3.51,5.51,7.68-.26.23c-1.26,1.1-2.12,2.54-2.5,4.16l-.07.3h-5.29l-.09-.26c-.62-1.87-2.22-3.24-4.12-3.58l.03-3.93c0-.45.25-.86.63-1.09Z"/>
</svg>