<?xml version="1.0" encoding="UTF-8"?>
<svg id="Capa_1" data-name="Capa 1" xmlns="http://www.w3.org/2000/svg" viewBox="0 0 40.75 44.8">
  <defs>
    <style>
      .cls-1 {
        fill: #c5c5c5;
        stroke-width: 0px;
      }
    </style>
  </defs>
  <path class="cls-1" d="M2.07,35.08l16.42,9.2c.56.31,1.19.49,1.83.51.02,0,.03,0,.05,0,0,0,0,0,0,0h0s0,0,0,0c.03,0,.07,0,.1,0,.7,0,1.39-.18,2-.53l16.21-9.23c1.27-.72,2.05-2.07,2.05-3.53V13.28c0-1.46-.78-2.81-2.05-3.53L22.53.53c-.68-.39-1.45-.58-2.24-.53-.62.03-1.24.22-1.79.52L2.2,9.83C.95,10.54.16,11.88.15,13.32L0,31.5c-.01,1.48.78,2.85,2.07,3.58ZM37.95,13.28v18.23c0,.45-.24.87-.64,1.09l-14.4,8.2,11.94-30.02,2.46,1.4c.39.22.64.64.64,1.1ZM19.9,2.97c.17-.1.36-.15.56-.16.02,0,.05,0,.07,0,.22,0,.43.06.62.17l11.25,6.42-12.02,30.22L8.43,9.5l11.46-6.53ZM2.95,13.34c0-.45.25-.86.64-1.09l2.39-1.36,11.81,29.78-14.35-8.04c-.4-.22-.65-.65-.64-1.11l.15-18.18Z"/>
</svg>