<?xml version="1.0" encoding="UTF-8"?>
<svg id="Capa_1" data-name="Capa 1" xmlns="http://www.w3.org/2000/svg" viewBox="0 0 40.66 44.8">
  <defs>
    <style>
      .cls-1 {
        fill: #c5c5c5;
        stroke-width: 0px;
      }
    </style>
  </defs>
  <path class="cls-1" d="M20.43,44.8c-.05,0-.11,0-.16,0-.64-.02-1.27-.2-1.82-.51L2.07,35.08C.78,34.35-.01,32.98,0,31.5L.15,13.32c.01-1.44.8-2.78,2.05-3.49L18.47.53c.54-.31,1.16-.49,1.78-.53.78-.04,1.55.14,2.23.53l16.13,9.22h0c1.26.72,2.04,2.07,2.04,3.53v18.23c0,1.46-.78,2.81-2.05,3.53l-16.17,9.23c-.61.35-1.3.53-2,.53ZM20.48,2.8s-.05,0-.07,0c-.2.01-.38.07-.55.16L3.58,12.26c-.39.22-.63.64-.64,1.08l-.15,18.18c0,.46.24.89.64,1.11l16.38,9.2c.17.1.37.15.57.16.24.01.47-.05.67-.16l16.17-9.23c.39-.22.64-.64.64-1.1V13.28c0-.45-.24-.87-.63-1.1L21.1,2.96c-.19-.11-.4-.17-.62-.17Z"/>
  <path class="cls-1" d="M12.53,32.07h-2.13c-1.38,0-2.51-1.13-2.51-2.51v-14.66c0-1.39,1.12-2.51,2.51-2.51h2.22c.77,0,1.4.63,1.4,1.4s-.63,1.4-1.4,1.4h-1.93v14.09h1.84c.77,0,1.4.63,1.4,1.4s-.63,1.4-1.4,1.4Z"/>
  <path class="cls-1" d="M15.15,24.17c-.96,0-1.75-.78-1.75-1.75s.78-1.76,1.75-1.76,1.75.77,1.75,1.73v.03c0,.97-.78,1.75-1.75,1.75Z"/>
  <path class="cls-1" d="M20.32,24.17c-.96,0-1.75-.78-1.75-1.75s.78-1.76,1.75-1.76,1.75.77,1.75,1.73v.03c0,.97-.78,1.75-1.75,1.75Z"/>
  <path class="cls-1" d="M25.49,24.17c-.96,0-1.75-.78-1.75-1.75s.78-1.76,1.75-1.76,1.75.77,1.75,1.73v.03c0,.97-.78,1.75-1.75,1.75Z"/>
  <path class="cls-1" d="M8.82,24.14h-1.24c-.96,0-1.75-.78-1.75-1.75s.78-1.75,1.75-1.75h1.24c.96,0,1.75.78,1.75,1.75s-.78,1.75-1.75,1.75Z"/>
  <path class="cls-1" d="M30.43,32.07h-2.22c-.77,0-1.4-.63-1.4-1.4s.63-1.4,1.4-1.4h1.93v-14.09h-1.84c-.77,0-1.4-.63-1.4-1.4s.63-1.4,1.4-1.4h2.13c1.38,0,2.51,1.13,2.51,2.51v14.66c0,1.39-1.12,2.51-2.51,2.51Z"/>
  <path class="cls-1" d="M33.25,23.82h-1.24c-.96,0-1.75-.78-1.75-1.75s.78-1.75,1.75-1.75h1.24c.96,0,1.75.78,1.75,1.75s-.78,1.75-1.75,1.75Z"/>
</svg>