<?xml version="1.0" encoding="UTF-8"?>
<svg id="Capa_1" data-name="Capa 1" xmlns="http://www.w3.org/2000/svg" viewBox="0 0 40.66 27.84">
  <defs>
    <style>
      .cls-1 {
        fill: #c5c5c5;
        stroke-width: 0px;
      }
    </style>
  </defs>
  <path class="cls-1" d="M9.74,27.21h-2.88c-1.87,0-3.4-1.53-3.4-3.4V3.95c0-1.88,1.52-3.4,3.4-3.4h3.01c1.05,0,1.89.85,1.89,1.9s-.85,1.9-1.89,1.9h-2.62v19.08h2.49c1.05,0,1.89.85,1.89,1.9s-.85,1.9-1.89,1.9Z"/>
  <path class="cls-1" d="M13.28,16.5c-1.31,0-2.36-1.06-2.36-2.37s1.06-2.39,2.36-2.39,2.36,1.04,2.36,2.35v.04c0,1.31-1.06,2.37-2.36,2.37Z"/>
  <path class="cls-1" d="M20.29,16.5c-1.31,0-2.36-1.06-2.36-2.37s1.06-2.39,2.36-2.39,2.36,1.04,2.36,2.35v.04c0,1.31-1.06,2.37-2.36,2.37Z"/>
  <path class="cls-1" d="M27.29,16.5c-1.31,0-2.36-1.06-2.36-2.37s1.06-2.39,2.36-2.39,2.36,1.04,2.36,2.35v.04c0,1.31-1.06,2.37-2.36,2.37Z"/>
  <path class="cls-1" d="M4.72,16.46h-1.68c-1.31,0-2.36-1.06-2.36-2.37s1.06-2.37,2.36-2.37h1.68c1.31,0,2.36,1.06,2.36,2.37s-1.06,2.37-2.36,2.37Z"/>
  <path class="cls-1" d="M33.98,27.21h-3.01c-1.05,0-1.89-.85-1.89-1.9s.85-1.9,1.89-1.9h2.62V4.34h-2.49c-1.05,0-1.89-.85-1.89-1.9s.85-1.9,1.89-1.9h2.88c1.87,0,3.39,1.53,3.39,3.4v19.86c0,1.88-1.52,3.4-3.39,3.4Z"/>
  <path class="cls-1" d="M37.8,16.03h-1.68c-1.31,0-2.36-1.06-2.36-2.37s1.06-2.37,2.36-2.37h1.68c1.31,0,2.36,1.06,2.36,2.37s-1.06,2.37-2.36,2.37Z"/>
</svg>