<?xml version="1.0" encoding="utf-8"?>
<svg xmlns="http://www.w3.org/2000/svg" viewBox="0 0 500 500">
  <g transform="matrix(1, 0, 0, 1, 0.857734, 0.162995)">
    <path class="cls-4" d="M128.7,39.4l-53.8-31c-1.5-.9-3.2-1.3-4.9-1.2-1.3,0-2.7.5-3.9,1.2L11.8,39.7c-2.7,1.6-4.4,4.5-4.5,7.7l-.5,61.2c0,3.3,1.7,6.3,4.5,7.9l54.7,31c1.2.7,2.6,1.1,4,1.1,1.6,0,3.3-.3,4.7-1.2l54-31.1c2.8-1.6,4.5-4.6,4.5-7.8v-61.4c0-3.2-1.7-6.2-4.5-7.8Z" style="fill: rgb(121, 165, 54); stroke-width: 0px;"/>
    <path class="cls-3" d="M128.8,39.4l-53.9-31.1c-1.5-.9-3.2-1.3-4.9-1.2v141.4c1.6,0,3.3-.3,4.7-1.2l54-31.1c2.8-1.6,4.5-4.6,4.5-7.8v-61.4c0-3.2-1.7-6.2-4.5-7.8Z" style="fill: rgb(128, 175, 46); stroke-width: 0px;"/>
  </g>
  <g transform="matrix(1, 0, 0, 1, 0.857734, 0.162995)">
    <g>
      <path class="cls-5" d="M30.2,112.9c-3.4,0-6.5-2-8-5.4s-.5-1.9-.5-2.9c0-6.9,0-37.2,0-52.8s3.8-8.5,8.5-8.6h11.9c.6,0,1.1.4,1.1,1v11c0,.6-.4,1.1-1,1.1h-6.8c-.6,0-1.1.5-1.1,1.1v41c0,.6.5,1.1,1.1,1.1h6.7c.6,0,1.1.4,1.1,1v11c0,.6-.4,1.1-1,1.1h-11.9c0,0,0,0,0,0Z" style="fill: rgb(255, 255, 255); stroke-width: 0px;"/>
      <path class="cls-5" d="M27.4,85.1l-10.1-1.8c-.7-.1-1.2-.7-1.2-1.4v-7.8c0-.7.5-1.3,1.2-1.4l10.1-1.8v14.2Z" style="fill: rgb(255, 255, 255); stroke-width: 0px;"/>
      <rect class="cls-5" x="43.2" y="72" width="11.9" height="11.9" rx="1.3" ry="1.3" style="fill: rgb(255, 255, 255); stroke-width: 0px;"/>
      <rect class="cls-5" x="64.1" y="72" width="11.9" height="11.9" rx="1.3" ry="1.3" style="fill: rgb(255, 255, 255); stroke-width: 0px;"/>
      <rect class="cls-5" x="84.9" y="72" width="11.9" height="11.9" rx="1.3" ry="1.3" style="fill: rgb(255, 255, 255); stroke-width: 0px;"/>
    </g>
    <path class="cls-5" d="M109.8,43c3.4,0,6.5,2,8,5.4s.5,1.9.5,2.9c0,6.9,0,37.2,0,52.8s-3.8,8.5-8.5,8.6h-11.9c-.6,0-1.1-.4-1.1-1v-11c0-.6.4-1.1,1-1.1h6.8c.6,0,1.1-.5,1.1-1.1v-41c0-.6-.5-1.1-1.1-1.1h-6.7c-.6,0-1.1-.4-1.1-1v-11c0-.6.4-1.1,1-1.1h11.9c0,0,0,0,0,0Z" style="fill: rgb(255, 255, 255); stroke-width: 0px;"/>
    <path class="cls-5" d="M112.6,70.8l10.1,1.8c.7.1,1.2.7,1.2,1.4v7.8c0,.7-.5,1.3-1.2,1.4l-10.1,1.8v-14.2Z" style="fill: rgb(255, 255, 255); stroke-width: 0px;"/>
  </g>
</svg>