<?xml version="1.0" encoding="UTF-8"?>
<svg id="Capa_1" data-name="Capa 1" xmlns="http://www.w3.org/2000/svg" viewBox="0 0 142.02 157.14">
  <defs>
    <style>
      .cls-1 {
        fill: #6487bf;
      }

      .cls-1, .cls-2, .cls-3 {
        stroke-width: 0px;
      }

      .cls-2 {
        fill: #7aa0ed;
      }

      .cls-3 {
        fill: #fff;
      }
    </style>
  </defs>
  <g>
    <path class="cls-1" d="M130.48,40.01l-54.54-31.12c-1.53-.87-3.25-1.26-4.95-1.16-1.37.08-2.72.46-3.95,1.16L12.01,40.25c-2.78,1.58-4.51,4.53-4.53,7.73l-.51,61.36c-.03,3.27,1.73,6.3,4.59,7.91l55.39,31.05c1.26.71,2.65,1.08,4.04,1.14,1.65.06,3.31-.32,4.79-1.16l54.69-31.13c2.8-1.6,4.54-4.58,4.54-7.8v-61.52c0-3.22-1.73-6.2-4.53-7.8v-.02Z"/>
    <path class="cls-2" d="M135.04,47.81c0-.17-.02-.33-.03-.5v-3.32c0-3.83-3.13-6.96-6.96-6.96h-2.77l-49.34-28.15c-1.53-.87-3.25-1.26-4.95-1.16v141.71c1.65.06,3.31-.26,4.79-1.1l48.63-27.73h3.74c3.83,0,6.85-3.03,6.85-6.85v-3.87c0-.17.03-.33.03-.5v-61.57Z"/>
  </g>
  <path class="cls-3" d="M122.34,57.66h-47.76c-3.04,0-5.5-2.46-5.5-5.5s2.46-5.5,5.5-5.5h47.76c3.04,0,5.5,2.46,5.5,5.5s-2.46,5.5-5.5,5.5Z"/>
  <path class="cls-3" d="M122.34,75.34h-47.76c-3.04,0-5.5-2.46-5.5-5.5s2.46-5.5,5.5-5.5h47.76c3.04,0,5.5,2.46,5.5,5.5s-2.46,5.5-5.5,5.5Z"/>
  <path class="cls-3" d="M122.34,93.02h-47.76c-3.04,0-5.5-2.46-5.5-5.5s2.46-5.5,5.5-5.5h47.76c3.04,0,5.5,2.46,5.5,5.5s-2.46,5.5-5.5,5.5Z"/>
  <path class="cls-3" d="M122.34,110.7h-47.76c-3.04,0-5.5-2.46-5.5-5.5s2.46-5.5,5.5-5.5h47.76c3.04,0,5.5,2.46,5.5,5.5s-2.46,5.5-5.5,5.5Z"/>
  <path class="cls-3" d="M70.17,120.61c-3.58,0-6.5-2.92-6.5-6.5V43.55c0-3.58,2.92-6.5,6.5-6.5h55.16s-18.63-10.74-19.28-11h-35.88c-9.65,0-17.5,7.85-17.5,17.5v70.56c0,9.65,7.85,17.5,17.5,17.5l34.58.26,19.66-11.26h-54.24Z"/>
</svg>