<?xml version="1.0" encoding="UTF-8"?>
<svg id="Capa_1" data-name="Capa 1" xmlns="http://www.w3.org/2000/svg" viewBox="0 0 128.07 141.74">
  <defs>
    <style>
      .cls-1 {
        fill: #d7d7d7;
        stroke-width: 0px;
      }
    </style>
  </defs>
  <path class="cls-1" d="M123.57,32.28l-.15.05L68.89,1.25c-1.52-.86-3.24-1.27-4.96-1.16-1.37.05-2.73.46-3.95,1.16L5.01,32.58c-2.78,1.57-4.51,4.51-4.51,7.74L0,101.63C0,104.92,1.72,107.9,4.61,109.52l4.13,2.31,7.57-62.65c.46-3.75,3.85-6.38,7.54-5.92l-.05-.05c3.75.46,6.38,3.85,5.92,7.54l-8.23,68.23,38.5,21.57c1.27.71,2.63,1.06,4.05,1.11,1.67.05,3.29-.3,4.81-1.16l36.37-20.71-8.33-68.84c-.4-3.75,2.23-7.09,5.92-7.54,3.75-.41,7.09,2.23,7.54,5.92l7.62,63.19,5.55-3.16c2.78-1.62,4.56-4.56,4.56-7.8v-61.5c0-3.24-1.72-6.18-4.51-7.8ZM47.94,86.34c-.15,3.64-3.14,6.48-6.73,6.48h-.3c-3.75-.15-6.63-3.29-6.48-7.04l1.52-36.09c.15-3.75,3.24-6.58,7.04-6.48,3.75.15,6.63,3.29,6.48,7.04l-1.52,36.09ZM70.11,119.35c0,3.75-3.04,6.78-6.78,6.78s-6.78-3.04-6.78-6.78V49.99c0-3.75,3.04-6.78,6.78-6.78s6.78,3.04,6.78,6.78v69.35ZM85.8,92.82h-.3c-3.59,0-6.58-2.83-6.73-6.48l-1.52-36.09c-.15-3.75,2.73-6.88,6.48-7.04,3.7-.1,6.88,2.73,7.04,6.48l1.52,36.09c.15,3.75-2.73,6.88-6.48,7.04Z"/>
</svg>